# xmcd CD database file
#
# Track frame offsets:
#	150
#	26824
#	51131
#	74689
#	114629
#	137562
#	159192
#	180474
#	216067
#	250208
#	282271
#	311312
#
# Disc length: 4513 seconds
#
# Revision: 0
# Processed by: cddbd v1.5.1PL0 Copyright (c) Steve Scherf et al.
# Submitted via: CDex 1.51
#
DISCID=a8119f0c
DTITLE=Dexter Gordon - The Complete Trio and Quartet Studio Recordings Disc 2
DYEAR=1974
DGENRE=Jazz
TTITLE0=The Apartment - Take 3
TTITLE1=Candlelight Lady - Take 1
TTITLE2=Candlelight Lady - Take 2
TTITLE3=Candlelight Lady - Take 3
TTITLE4=Antabus - Take 1
TTITLE5=Antabus - Take 4
TTITLE6=Antabus - Take 5
TTITLE7=Strollin'
TTITLE8=Wee-Dot - Take 1
TTITLE9=Wee-Dot - Take 4
TTITLE10=Stablemates - Take 1
TTITLE11=Stablemates - Take 6
EXTD=YEAR: 1974
EXTT0=
EXTT1=
EXTT2=
EXTT3=
EXTT4=
EXTT5=
EXTT6=
EXTT7=
EXTT8=
EXTT9=
EXTT10=
EXTT11=
PLAYORDER=
